<svg xmlns="http://www.w3.org/2000/svg" viewBox="0 0 1200 630" role="img" aria-labelledby="title description">
  <title id="title">NatureWxLab</title>
  <desc id="description">天気と自然を毎日の判断につなぐNatureWxLab公式サイト</desc>
  <defs>
    <linearGradient id="background" x1="0" x2="1" y1="0" y2="1">
      <stop offset="0" stop-color="#f8fbf9"/>
      <stop offset="0.62" stop-color="#eaf5f0"/>
      <stop offset="1" stop-color="#e3f2f5"/>
    </linearGradient>
  </defs>
  <rect width="1200" height="630" fill="url(#background)"/>
  <circle cx="1020" cy="130" r="210" fill="#dceef4" opacity="0.8"/>
  <circle cx="1050" cy="520" r="260" fill="#dcece4" opacity="0.76"/>
  <rect x="760" y="188" width="264" height="264" rx="66" fill="#f3f8f5" stroke="#17352f" stroke-width="5"/>
  <circle cx="843" cy="265" r="19" fill="#e4a83b"/>
  <path d="M815 312c19-30 44-44 74-44 33 0 61 14 80 44" fill="none" stroke="#2f7897" stroke-linecap="round" stroke-width="16"/>
  <path d="M815 350c28-11 58-11 85 0 20 8 39 8 58-3" fill="none" stroke="#2c8b91" stroke-linecap="round" stroke-width="15"/>
  <path d="M895 389c3-44 28-69 74-74-6 44-30 69-74 74Z" fill="#24725d"/>
  <path d="M901 381c19-22 36-39 58-55" fill="none" stroke="#f3f8f5" stroke-linecap="round" stroke-width="7"/>
  <text x="100" y="190" fill="#24725d" font-family="-apple-system,BlinkMacSystemFont,'Segoe UI',sans-serif" font-size="34" font-weight="750" letter-spacing="4">NATURE × WEATHER × LIFE</text>
  <text x="100" y="294" fill="#17352f" font-family="-apple-system,BlinkMacSystemFont,'Segoe UI',sans-serif" font-size="76" font-weight="800">NatureWxLab</text>
  <text x="100" y="390" fill="#17352f" font-family="-apple-system,BlinkMacSystemFont,'Segoe UI',sans-serif" font-size="48" font-weight="750">天気と自然を、</text>
  <text x="100" y="458" fill="#24725d" font-family="-apple-system,BlinkMacSystemFont,'Segoe UI',sans-serif" font-size="48" font-weight="750">毎日の判断につなぐ。</text>
  <text x="100" y="532" fill="#5d746e" font-family="-apple-system,BlinkMacSystemFont,'Segoe UI',sans-serif" font-size="26">公式サイト  naturewxlab.com</text>
</svg>
